<svg width="50" height="50" viewBox="0 0 50 50" fill="none" xmlns="http://www.w3.org/2000/svg">
<rect x="49.5" y="0.5" width="49" height="49" rx="24.5" transform="rotate(90 49.5 0.5)" stroke="#00AEC7"/>
<path fill-rule="evenodd" clip-rule="evenodd" d="M24.7506 15C25.0821 15 25.4 15.1317 25.6344 15.3661C25.8688 15.6005 26.0005 15.9184 26.0005 16.2499L26.0005 30.7307L31.3649 25.3638C31.4811 25.2476 31.619 25.1555 31.7709 25.0926C31.9227 25.0297 32.0854 24.9973 32.2498 24.9973C32.4141 24.9973 32.5768 25.0297 32.7287 25.0926C32.8805 25.1555 33.0185 25.2476 33.1347 25.3638C33.2509 25.48 33.3431 25.618 33.4059 25.7698C33.4688 25.9217 33.5012 26.0844 33.5012 26.2487C33.5012 26.4131 33.4688 26.5758 33.4059 26.7277C33.3431 26.8795 33.2509 27.0174 33.1347 27.1336L25.6355 34.6328C25.5194 34.7492 25.3815 34.8415 25.2296 34.9046C25.0778 34.9676 24.915 35 24.7506 35C24.5862 35 24.4234 34.9676 24.2716 34.9046C24.1197 34.8415 23.9818 34.7492 23.8657 34.6328L16.3665 27.1336C16.2503 27.0174 16.1582 26.8795 16.0953 26.7276C16.0324 26.5758 16 26.4131 16 26.2487C16 26.0844 16.0324 25.9217 16.0953 25.7698C16.1582 25.618 16.2503 25.48 16.3665 25.3638C16.6012 25.1292 16.9195 24.9973 17.2514 24.9973C17.4158 24.9973 17.5785 25.0297 17.7303 25.0926C17.8822 25.1555 18.0201 25.2476 18.1363 25.3638L23.5007 30.7307L23.5007 16.2499C23.5007 15.9184 23.6324 15.6005 23.8668 15.3661C24.1012 15.1317 24.4191 15 24.7506 15Z" fill="#00AEC7"/>
</svg>
