<svg width="84" height="84" viewBox="0 0 84 84" fill="none" xmlns="http://www.w3.org/2000/svg">
<g filter="url(#filter0_d_1519_8078)">
<circle cx="42" cy="42" r="22" fill="white"/>
</g>
<path d="M41.1519 31.5299L42 32.8872L42.8481 31.5299C43.8128 29.9858 45.5122 29 47.4545 29C50.485 29 53 31.5349 53 34.6667C53 36.0379 52.3779 37.4998 51.3135 38.9782C50.2561 40.4468 48.825 41.8441 47.3598 43.0651C45.8994 44.2821 44.434 45.3002 43.3311 46.015C42.7806 46.3718 42.3228 46.6515 42.0041 46.8412C42.0034 46.8417 42.0026 46.8421 42.0019 46.8426C42.0008 46.8419 41.9997 46.8412 41.9986 46.8406C41.6798 46.6494 41.2218 46.3677 40.6712 46.0087C39.568 45.2894 38.1021 44.266 36.6412 43.0452C35.1755 41.8203 33.7439 40.4209 32.6861 38.9541C31.6207 37.4768 31 36.0224 31 34.6667C31 31.5349 33.515 29 36.5455 29C38.4878 29 40.1872 29.9858 41.1519 31.5299Z" stroke="black" stroke-width="2"/>
<path d="M36.8197 52.4V58H35.5237V53.44H34.4037V52.4H36.8197ZM38.5285 58.064C38.3098 58.064 38.1258 57.9893 37.9765 57.84C37.8271 57.6907 37.7525 57.504 37.7525 57.28C37.7525 57.0507 37.8271 56.8667 37.9765 56.728C38.1258 56.584 38.3098 56.512 38.5285 56.512C38.7471 56.512 38.9311 56.584 39.0805 56.728C39.2298 56.8667 39.3045 57.0507 39.3045 57.28C39.3045 57.504 39.2298 57.6907 39.0805 57.84C38.9311 57.9893 38.7471 58.064 38.5285 58.064ZM44.1483 56.944V58H39.9163V57.16L42.0763 55.12C42.3057 54.9013 42.4603 54.7147 42.5403 54.56C42.6203 54.4 42.6603 54.2427 42.6603 54.088C42.6603 53.864 42.583 53.6933 42.4283 53.576C42.279 53.4533 42.0577 53.392 41.7643 53.392C41.519 53.392 41.2977 53.44 41.1003 53.536C40.903 53.6267 40.7377 53.7653 40.6043 53.952L39.6603 53.344C39.879 53.0187 40.1803 52.7653 40.5643 52.584C40.9483 52.3973 41.3883 52.304 41.8843 52.304C42.3003 52.304 42.663 52.3733 42.9723 52.512C43.287 52.6453 43.5297 52.8373 43.7003 53.088C43.8763 53.3333 43.9643 53.624 43.9643 53.96C43.9643 54.264 43.9003 54.5493 43.7723 54.816C43.6443 55.0827 43.3963 55.3867 43.0283 55.728L41.7403 56.944H44.1483ZM46.7951 56.312L46.1951 56.904V58H44.9471V52.064H46.1951V55.424L48.0191 53.696H49.5071L47.7151 55.52L49.6671 58H48.1551L46.7951 56.312Z" fill="black"/>
<defs>
<filter id="filter0_d_1519_8078" x="0" y="0" width="84" height="84" filterUnits="userSpaceOnUse" color-interpolation-filters="sRGB">
<feFlood flood-opacity="0" result="BackgroundImageFix"/>
<feColorMatrix in="SourceAlpha" type="matrix" values="0 0 0 0 0 0 0 0 0 0 0 0 0 0 0 0 0 0 127 0" result="hardAlpha"/>
<feOffset/>
<feGaussianBlur stdDeviation="10"/>
<feComposite in2="hardAlpha" operator="out"/>
<feColorMatrix type="matrix" values="0 0 0 0 0 0 0 0 0 0 0 0 0 0 0 0 0 0 0.1 0"/>
<feBlend mode="normal" in2="BackgroundImageFix" result="effect1_dropShadow_1519_8078"/>
<feBlend mode="normal" in="SourceGraphic" in2="effect1_dropShadow_1519_8078" result="shape"/>
</filter>
</defs>
</svg>
